<svg xmlns="http://www.w3.org/2000/svg" width="702.327" height="228.385" viewBox="0 0 526.745 171.289"><path d="M0 0h526.746v171.289H0z" fill="#231f20"/><clipPath id="a"><path d="M0 0h527v172H0z"/></clipPath><g clip-path="url(#a)"><path d="M226.816 97.633v21.387c4.129 0 8.258-.09 11.899-.09 10.617 0 12.777-6.098 12.777-10.606 0-4.418-2.847-10.691-13.367-10.691zm0-7.242h10.325c9.242 0 11.304-4.953 11.304-9.106 0-4.328-1.867-9.097-11.109-9.097-2.754 0-7.375 0-10.52-.09zm10.715-25.36c14.453 0 21.438 6.008 21.438 15.992 0 5.567-3.739 10.426-9.242 12.372 6.683 1.765 12.484 7.863 12.484 15.46 0 9.809-7.078 17.231-23.399 17.231-7.964 0-14.355-.176-21.73-.266l-.59-.617V65.914l.59-.621c7.18-.086 13.961-.262 20.449-.262M280.379 93.922c3.836-.086 8.16-.176 10.914-.176 9.637 0 11.996-5.476 11.996-10.601 0-5.391-2.359-10.692-11.996-10.692-2.852 0-7.57 0-10.914-.09zm21.141 5.301c3.242 1.062 5.601 4.066 6.98 7.515l4.324 10.336c.985 2.387 2.164 4.77 4.422 6.364-1.371 1.851-4.422 2.914-7.074 2.914-3.934 0-5.313-1.946-6.883-5.747l-4.918-11.925c-1.668-4.067-3.832-7.246-9.93-7.246h-8.062v24.3c-1.57.262-3.539.352-5.207.352-1.578 0-3.641-.09-5.117-.352v-59.82l.59-.621c7.375-.086 14.457-.262 21.14-.262 13.664 0 22.317 6.36 22.317 18.114 0 8.128-5.407 14.05-12.582 16.078M340.438 103.465c1.574 0 4.23-.086 5.015-.086h9.828c.692 0 3.344.086 4.922.086l-4.527-12.809c-1.766-5.125-3.832-11.312-5.211-15.996h-.488c-.985 3.977-2.754 9.543-3.836 12.813zm-2.657 7.597l-5.207 14.758c-1.281.266-2.949.356-4.523.356-1.871 0-3.739-.266-5.113-.617l-.297-.446 22.222-59.73c1.571-.266 4.325-.352 5.996-.352 1.672 0 4.422.086 5.899.352l22.027 59.73c-1.476.883-3.836 1.239-6.097 1.239-3.247 0-4.918-1.063-6.196-4.946l-3.637-10.344c-1.671 0-5.113.09-5.902.09h-13.469c-.785 0-4.031-.09-5.703-.09M388.113 113.012c5.703 3.351 12.977 6.008 19.762 6.008 7.961 0 12.484-3.45 12.582-8.309 0-4.152-3.242-7.332-8.945-9.543l-11.602-4.504c-8.258-3.184-13.469-7.777-13.469-15.289 0-9.633 9.043-17.141 22.219-17.141 8.16 0 15.731 2.297 20.844 4.594-.098 2.652-1.672 5.567-3.836 7.336-5.109-2.301-11.797-4.156-16.813-4.156-7.273 0-11.796 3.625-11.796 8.308 0 3.887 3.343 6.094 8.16 7.954l11.406 4.418c8.453 3.179 14.746 8.57 14.746 16.433 0 10.16-7.863 17.762-24.086 17.762-8.164 0-17.012-2.477-23.597-6.629.292-2.738 2.261-5.656 4.425-7.242M443.59 65.383c1.476-.266 3.637-.352 5.207-.352 1.578 0 3.641.086 5.215.352v60.351c-1.574.262-3.637.352-5.215.352-1.57 0-3.731-.09-5.207-.352zm0 0M509.863 117.602c0 .972-.097 2.566-.293 3.714-.59 3.004-3.05 4.504-6.785 4.504h-25.66c-3.539 0-6.098-2.031-6.098-5.832V65.559l.688-.532h3.933c4.329 0 5.903 1.86 5.903 6.012v46.918c3.043-.266 6.094-.355 8.746-.355zm0 0M222.457 40.559c1.473-.047 3.074-.09 3.742-.09 3.961 0 4.762-3.25 4.762-5.61 0-2.406-.801-5.613-4.762-5.613-1.113 0-2.402 0-3.742-.043zm4.098 4.539h-4.098v10.109c-.934.18-2.137.219-2.98.219-.801 0-2.047-.039-2.985-.219V25.02l.313-.27c3.562-.09 6.547-.176 9.75-.176 6.144 0 10.55 3.34 10.55 10.285 0 6.723-4.406 10.239-10.55 10.239M245.703 43.586c.621 0 1.555-.043 2.004-.043h3.828c.399 0 1.246.043 1.871.043l-1.34-4.543c-.754-2.539-1.734-5.965-2.402-8.637h-.266c-.445 2.27-1.382 5.477-1.96 7.524zm-1.473 4.719l-2.089 6.945c-.758.176-1.649.223-2.586.223-.934 0-2.137-.133-2.848-.399l-.223-.312 9.93-29.969c.981-.133 2.449-.219 3.477-.219.929 0 2.488.086 3.425.266l9.75 29.965c-.847.488-2.269.761-3.429.761-1.914 0-2.848-.671-3.563-3.211l-1.246-4.05c-.664 0-1.734.043-2.18.043h-6.234c-.445 0-1.469 0-2.184-.043M269.258 33.035c0-1.207.039-2.051.039-3.297h-.039c-.625 0-2.051.043-2.676.043h-4.941c-.18-.886-.223-1.781-.223-2.492 0-.668.043-1.601.223-2.496h21.285c.176.625.308 1.559.308 2.316 0 1.961-1.019 2.672-3.203 2.672h-2.093c-.626 0-2.047-.043-2.672-.043h-.043c0 1.246.043 2.09.043 3.297v22.172c-1.028.18-2.137.219-3.028.219-.847 0-1.961-.039-2.98-.219zm0 0M292.988 38.91a82.37 82.37 0 014.094-.133c3.875 0 4.762-2.359 4.762-4.808 0-2.492-.887-4.809-4.762-4.809-1.07 0-2.715 0-4.094-.047zm9.438 3.207c1.601.578 2.668 2.09 3.293 3.914l1.648 4.5c.445 1.246 1.113 2.449 2.094 3.25-.758 1.067-2.406 1.781-3.965 1.781-2.18 0-2.937-1.203-3.785-3.519l-1.871-5.297c-.668-1.781-1.559-3.207-4.141-3.207h-2.711v11.668c-.984.18-2.14.219-2.988.219-.754 0-2.004-.039-2.938-.219V25.02l.313-.27c3.563-.09 6.945-.176 10.152-.176 6.188 0 10.461 3.071 10.461 9.395 0 4.226-2.668 7.121-5.562 8.148M314.27 24.793c.89-.176 2.179-.219 2.98-.219.848 0 2.004.043 2.984.219v30.414c-.98.18-2.136.219-2.984.219-.801 0-2.09-.039-2.98-.219zm0 0M333.902 43.586c.625 0 1.559-.043 2.004-.043h3.828c.403 0 1.246.043 1.871.043l-1.335-4.543c-.754-2.539-1.739-5.965-2.403-8.637h-.269c-.446 2.27-1.379 5.477-1.957 7.524zm-1.468 4.719l-2.094 6.945c-.758.176-1.649.223-2.582.223-.934 0-2.137-.133-2.848-.399l-.222-.312 9.929-29.969c.977-.133 2.449-.219 3.473-.219.933 0 2.492.086 3.426.266l9.754 29.965c-.848.488-2.274.761-3.43.761-1.914 0-2.852-.671-3.563-3.211l-1.246-4.05c-.668 0-1.738.043-2.183.043h-6.231c-.445 0-1.472 0-2.183-.043M371.527 43.586c.625 0 1.559-.043 2.004-.043h3.828c.403 0 1.246.043 1.871.043l-1.335-4.543c-.754-2.539-1.739-5.965-2.407-8.637h-.265c-.446 2.27-1.379 5.477-1.957 7.524zm-1.468 4.719l-2.094 6.945c-.758.176-1.645.223-2.582.223-.934 0-2.137-.133-2.852-.399l-.219-.312 9.926-29.969c.981-.133 2.45-.219 3.477-.219.933 0 2.492.086 3.426.266l9.75 29.965c-.844.488-2.27.761-3.426.761-1.914 0-2.852-.671-3.563-3.211l-1.246-4.05c-.668 0-1.738.043-2.183.043h-6.235c-.445 0-1.468 0-2.179-.043M394.723 24.84c1.289-.223 2.984-.313 4.007-.313 1.071 0 2.536.09 3.786.313l3.429 12.336c.313 1.246 1.422 5.832 1.692 7.609h.312c.266-1.777 1.379-6.363 1.692-7.609l3.382-12.336a24.401 24.401 0 013.782-.313c1.07 0 2.718.09 4.054.313l2.36 30.277c-.848.223-2.047.309-3.028.309-.937 0-1.781-.039-2.629-.176l-.843-14.293c-.18-2.762-.356-6.855-.356-9.66h-.312l-5.211 19.367c-.887.133-2.227.223-3.07.223-.805 0-2.137-.09-3.028-.223l-5.211-19.367h-.312c-.043 2.805-.176 6.898-.356 9.66l-.847 14.293c-.844.137-1.735.176-2.668.176-.934 0-2.141-.086-2.985-.309zm0 0M435.91 43.586c.625 0 1.559-.043 2.004-.043h3.828c.403 0 1.246.043 1.871.043l-1.336-4.543c-.754-2.539-1.738-5.965-2.406-8.637h-.266c-.445 2.27-1.378 5.477-1.957 7.524zm-1.469 4.719l-2.093 6.945c-.758.176-1.645.223-2.582.223-.934 0-2.137-.133-2.848-.399l-.223-.312 9.926-29.969c.981-.133 2.453-.219 3.477-.219.933 0 2.492.086 3.429.266l9.746 29.965c-.843.488-2.269.761-3.425.761-1.914 0-2.852-.671-3.563-3.211l-1.246-4.05c-.668 0-1.738.043-2.184.043h-6.234c-.445 0-1.469 0-2.18-.043M468.41 29.293c-1.691 0-3.07 0-4.851-.047v21.508c1.781-.043 3.16-.043 4.851-.043 5.832 0 6.68-5.836 6.68-10.731 0-4.902-.848-10.687-6.68-10.687m7.973 23.91c-1.961 1.602-5.567 2.223-7.973 2.223-3.738 0-6.633-.086-10.508-.176l-.308-.266V25.02l.308-.27c3.832-.133 6.77-.176 10.508-.176 2.406 0 6.012.621 7.973 2.223 4.094 3.297 4.851 8.015 4.851 13.183 0 5.208-.711 9.926-4.851 13.223M492.5 43.586c.625 0 1.559-.043 2.004-.043h3.828c.402 0 1.246.043 1.871.043l-1.336-4.543c-.758-2.539-1.738-5.965-2.406-8.637h-.266c-.445 2.27-1.379 5.477-1.957 7.524zm-1.469 4.719l-2.093 6.945c-.758.176-1.649.223-2.583.223-.933 0-2.136-.133-2.851-.399l-.219-.312 9.926-29.969c.98-.133 2.449-.219 3.477-.219.933 0 2.492.086 3.425.266l9.75 29.965c-.843.488-2.269.761-3.425.761-1.915 0-2.852-.671-3.563-3.211l-1.246-4.05c-.668 0-1.738.043-2.184.043h-6.234c-.445 0-1.469 0-2.18-.043M255.172 14.383c.879.461 2.082 1.855 2.394 3.176l-7.375 4.386c-.746-.273-1.425-1.257-1.644-1.996zm0 0M223.852 144.242l3.398-.023c1.527 0 2.293.722 2.293 2.164v5.695c-1.863.59-3.816.887-5.867.887-1.039 0-1.957-.176-2.758-.52a5.32 5.32 0 01-2.012-1.492c-.543-.652-.949-1.449-1.222-2.394-.278-.946-.414-2.016-.414-3.215 0-1.313.191-2.453.574-3.43.383-.973.894-1.785 1.539-2.434a6.25 6.25 0 012.219-1.46 7.156 7.156 0 012.617-.489c1.875 0 3.636.52 5.281 1.559-.016.23-.07.465-.164.703a4.362 4.362 0 01-.344.691c-.14.227-.297.43-.476.61a4.345 4.345 0 01-.555.465c-1.195-.782-2.41-1.172-3.633-1.172-2.355 0-3.531 1.648-3.531 4.937 0 3.278 1.207 4.91 3.613 4.91.336 0 .656-.011.965-.039.313-.031.617-.074.922-.133v-1.449c0-.332.004-.621.012-.867.003-.242.015-.453.031-.625h-1.082c-.621 0-1.051-.121-1.289-.359-.239-.239-.356-.61-.356-1.114 0-.433.078-.902.239-1.406M242.918 148.613c.391 1.125 1.176 1.688 2.359 1.688.59 0 1.071-.145 1.438-.442.367-.297.656-.671.867-1.125.207-.453.348-.964.422-1.527.07-.562.109-1.117.109-1.668 0-.504-.019-1.066-.054-1.687a6.913 6.913 0 00-.317-1.743 3.285 3.285 0 00-.82-1.363c-.375-.367-.926-.551-1.645-.551-.691 0-1.222.176-1.589.528a3.25 3.25 0 00-.825 1.312 6.526 6.526 0 00-.336 1.656 21.145 21.145 0 00-.062 1.547c0 .664.031 1.254.094 1.774.066.519.187 1.054.359 1.601m-1.754 2.989c-1.543-1.286-2.316-3.399-2.316-6.344 0-1.27.148-2.383.445-3.344.297-.957.719-1.762 1.277-2.41a5.313 5.313 0 012.024-1.473c.793-.332 1.687-.496 2.683-.496.996 0 1.895.164 2.696.496.8.332 1.476.824 2.031 1.481.558.656.984 1.465 1.277 2.426.297.957.446 2.066.446 3.32 0 1.258-.149 2.363-.446 3.324-.293.961-.719 1.762-1.277 2.414a5.305 5.305 0 01-2.031 1.469c-.801.332-1.7.5-2.696.5-1.644 0-3.015-.457-4.113-1.363M266.574 149.738l2.832-11.879c.348-.089.793-.132 1.344-.132.75 0 1.34.082 1.773.238l.133.176-4.051 14.5a23.76 23.76 0 01-2.476.129c-.828 0-1.43-.106-1.797-.317-.367-.207-.644-.621-.832-1.242l-3.594-13.051c.782-.332 1.422-.5 1.926-.5.606 0 1.055.141 1.344.414.285.274.512.707.672 1.297l1.664 6.168c.261.969.535 2.281.824 3.941.027.172.105.258.238.258M285.316 148.266l-.023 1.558v.024c.66-.028 1.195-.043 1.598-.043h5.004c0 .535-.024.945-.067 1.234-.172 1.109-.91 1.664-2.207 1.664h-5.758c-.621 0-1.105-.18-1.461-.539-.351-.363-.527-.852-.527-1.473v-12.683l.148-.153h9.329c.089.422.132.875.132 1.368 0 .488-.101 1-.304 1.535h-5.887l.023 1.558v1.516c.372-.016.86-.023 1.465-.023h3.297c.129.402.192.867.192 1.386 0 .52-.063.993-.192 1.426h-4.762zm0 0M305.16 140.301v4.265c.649 0 1.207-.011 1.668-.031.461-.023.832-.109 1.113-.262.282-.152.497-.367.641-.64.141-.278.215-.676.215-1.199 0-1.407-.68-2.11-2.035-2.11h-.899c-.265 0-.5-.008-.703-.023m7.164 2.121c0 .476-.07.93-.215 1.355a4.418 4.418 0 01-.574 1.145 4.1 4.1 0 01-.844.89 3.85 3.85 0 01-1.007.571c.75.277 1.304.941 1.664 1.992l.652 1.84c.246.723.605 1.254 1.082 1.601-.215.289-.543.532-.973.727-.433.195-.91.293-1.429.293-.52 0-.922-.152-1.211-.445-.289-.297-.559-.813-.801-1.547l-.781-2.274c-.157-.433-.371-.765-.637-.996-.27-.23-.668-.347-1.203-.347h-.887v5.414c-.461.086-1.039.129-1.73.129-.692 0-1.262-.043-1.711-.129v-14.676l.152-.153c1.254-.027 2.313-.046 3.172-.062a112.84 112.84 0 012.023-.023c.793 0 1.516.097 2.164.293.649.195 1.2.488 1.657.875.453.39.804.882 1.058 1.472.254.594.379 1.278.379 2.055M334.098 137.707l.152.148v14.719c-.578.129-1.262.196-2.047.196a15.05 15.05 0 01-2.09-.129l-3.398-7.75a40.764 40.764 0 01-1.231-3.051l-.066.019a79.63 79.63 0 01.258 6.473v4.309a8.724 8.724 0 01-1.621.129c-.637 0-1.168-.043-1.602-.129v-14.719c.547-.129 1.207-.195 1.981-.195.769 0 1.461.043 2.066.128l3.355 7.727a94.862 94.862 0 011.34 3.293l.086-.047a74.802 74.802 0 01-.258-6.383v-2.64c0-.75.153-1.289.454-1.614.304-.324.793-.484 1.472-.484zm0 0M348.145 148.613c.386 1.125 1.175 1.688 2.355 1.688.594 0 1.074-.145 1.441-.442.368-.297.657-.671.864-1.125a5.21 5.21 0 00.425-1.527c.071-.562.106-1.117.106-1.668 0-.504-.016-1.066-.055-1.687a7.05 7.05 0 00-.312-1.743 3.287 3.287 0 00-.821-1.363c-.378-.367-.925-.551-1.648-.551-.691 0-1.223.176-1.59.528-.367.355-.64.793-.82 1.312a6.317 6.317 0 00-.336 1.656 21.346 21.346 0 00-.066 1.547c0 .664.031 1.254.097 1.774.067.519.184 1.054.36 1.601m-1.754 2.989c-1.547-1.286-2.317-3.399-2.317-6.344 0-1.27.149-2.383.442-3.344.296-.957.722-1.762 1.277-2.41a5.34 5.34 0 012.023-1.473c.797-.332 1.692-.496 2.684-.496.996 0 1.895.164 2.695.496a5.25 5.25 0 012.035 1.481c.555.656.981 1.465 1.278 2.426.297.957.441 2.066.441 3.32 0 1.258-.144 2.363-.441 3.324-.297.961-.723 1.762-1.278 2.414a5.304 5.304 0 01-2.035 1.469c-.8.332-1.699.5-2.695.5-1.645 0-3.016-.457-4.109-1.363M382.402 140.801l.02 1.687v1.364h4.656c.113.433.172.906.172 1.418 0 .511-.059.984-.172 1.418h-4.656v5.953c-.457.086-1.031.129-1.719.129-.687 0-1.262-.043-1.719-.129v-14.653l.149-.129h9.265c.086.36.129.809.129 1.352 0 .539-.148.941-.445 1.199-.297.262-.762.391-1.402.391zm0 0M401.402 148.266l-.019 1.558v.024c.66-.028 1.191-.043 1.597-.043h5.004c0 .535-.023.945-.066 1.234-.172 1.109-.91 1.664-2.207 1.664h-5.758c-.621 0-1.105-.18-1.461-.539-.351-.363-.531-.852-.531-1.473v-12.683l.152-.153h9.328c.086.422.129.875.129 1.368 0 .488-.097 1-.3 1.535h-5.887l.019 1.558v1.516c.375-.016.864-.023 1.465-.023h3.297c.133.402.195.867.195 1.386 0 .52-.062.993-.195 1.426h-4.762zm0 0M423.395 150.062c1.902 0 2.855-1.601 2.855-4.804 0-3.215-.953-4.824-2.855-4.824h-1.227c-.352 0-.66-.008-.918-.024v9.676c.258-.016.566-.024.918-.024zm3.98 1.626c-.461.374-1.066.648-1.82.82-.75.176-1.578.262-2.489.262-.445 0-1.089-.008-1.933-.024-.848-.016-1.903-.035-3.172-.062l-.152-.153v-14.566l.152-.153a181.413 181.413 0 015.453-.085c1.227 0 2.25.195 3.074.585.821.387 1.477.922 1.969 1.602.488.676.836 1.473 1.039 2.391.203.918.301 1.902.301 2.953 0 1.445-.164 2.691-.496 3.746-.332 1.055-.973 1.949-1.926 2.684M443.086 148.266l-.02 1.558v.024a39.752 39.752 0 011.594-.043h5.008c0 .535-.023.945-.066 1.234-.172 1.109-.911 1.664-2.207 1.664h-5.758c-.621 0-1.11-.18-1.461-.539-.356-.363-.531-.852-.531-1.473v-12.683l.152-.153h9.328c.086.422.129.875.129 1.368 0 .488-.098 1-.301 1.535h-5.887l.02 1.558v1.516c.375-.016.863-.023 1.465-.023h3.297c.129.402.195.867.195 1.386 0 .52-.066.993-.195 1.426h-4.762zm0 0M462.934 140.301v4.265c.648 0 1.203-.011 1.664-.031.464-.023.836-.109 1.117-.262a1.53 1.53 0 00.637-.64c.144-.278.218-.676.218-1.199 0-1.407-.679-2.11-2.035-2.11h-.898c-.27 0-.5-.008-.703-.023m7.164 2.121c0 .476-.075.93-.219 1.355a4.326 4.326 0 01-.574 1.145 4.053 4.053 0 01-1.848 1.461c.75.277 1.305.941 1.664 1.992l.652 1.84c.243.723.606 1.254 1.082 1.601-.218.289-.543.532-.976.727-.43.195-.906.293-1.426.293-.519 0-.926-.152-1.215-.445-.289-.297-.554-.813-.8-1.547l-.778-2.274c-.16-.433-.371-.765-.64-.996-.266-.23-.665-.347-1.2-.347h-.886v5.414c-.461.086-1.039.129-1.731.129-.695 0-1.265-.043-1.711-.129v-14.676l.153-.153c1.253-.027 2.312-.046 3.167-.062.86-.016 1.536-.023 2.028-.023.789 0 1.512.097 2.16.293.652.195 1.203.488 1.656.875.457.39.809.882 1.063 1.472.25.594.379 1.278.379 2.055M483.754 146.816l.863-.019h1.582c.071 0 .199.004.379.008.18.007.313.011.399.011l-.368-1.339c-.347-1.215-.742-2.7-1.191-4.461h-.129c-.113.621-.461 2-1.039 4.136zm.062 2.727c-.386 0-.675-.004-.863-.02l-.933 3.137c-.344.086-.829.129-1.45.129-.691 0-1.254-.078-1.687-.238l-.11-.172 4.762-14.524a13.36 13.36 0 011.973-.128c.847 0 1.527.05 2.031.152l4.676 14.543c-.504.277-1.074.414-1.711.414-.75 0-1.274-.133-1.578-.391-.305-.261-.563-.757-.781-1.492l-.411-1.43c-.187.016-.468.02-.843.02zm0 0M506.918 149.719h3.758c0 .574-.035 1.07-.11 1.48-.07.414-.3.766-.691 1.063-.391.293-.902.441-1.535.441h-4.891c-.621 0-1.113-.18-1.472-.539-.364-.363-.543-.852-.543-1.473v-12.832l.152-.152h1.269c1.348 0 2.02.734 2.02 2.207v9.891a22.206 22.206 0 012.043-.086" fill="#fff"/><path d="M14.586 21.07h188.512v135.836H14.586z" fill="#231f20"/><path d="M17.746 24.598h181.125v128.199H17.746z" fill="#fff"/><path d="M17.746 24.578v69.707l72.078-58.16 109.047 48.102V24.578zm0 0" fill="#fff"/><path d="M17.746 145.125a1.414 1.414 0 01-1.418-1.414V94.285c0-.43.192-.836.527-1.101l72.079-58.161c.257-.207.57-.312.89-.312.192 0 .387.035.571.117l109.05 48.102c.617.273.957.945.809 1.605a1.416 1.416 0 01-1.383 1.11h-.039a271.664 271.664 0 00-7.816-.114c-16.75 0-33.641 1.547-50.211 4.602a1.42 1.42 0 01-1.11-.262c-11.418-8.598-25.031-13.141-39.359-13.141a65.498 65.498 0 00-42.684 15.813c-11.734 10.09-19.543 24.012-21.988 39.207a1.41 1.41 0 01-.613.953c-10.539 7.004-16.317 12.024-16.375 12.074a1.402 1.402 0 01-.93.348" fill="#fff"/><path d="M89.824 33.293a2.84 2.84 0 00-1.781.625l-72.078 58.16a2.838 2.838 0 00-1.055 2.207v49.422a2.83 2.83 0 001.664 2.582 2.825 2.825 0 003.035-.445c.055-.051 5.786-5.02 16.227-11.957a2.86 2.86 0 001.23-1.91c2.391-14.868 10.032-28.489 21.512-38.36a64.076 64.076 0 0141.758-15.469c14.019 0 27.336 4.446 38.508 12.856a2.848 2.848 0 002.218.523 276.17 276.17 0 0149.95-4.578c2.578 0 5.195.039 7.781.11h.078a2.833 2.833 0 001.145-5.426L90.969 33.531a2.866 2.866 0 00-1.145-.238m0 2.832l109.047 48.102a277.12 277.12 0 00-7.859-.114c-17.95 0-34.821 1.742-50.461 4.625-11.196-8.429-25.121-13.426-40.215-13.426-33.316 0-60.941 24.344-66.07 56.211-10.754 7.145-16.52 12.184-16.52 12.184V94.285l72.078-58.16" fill="#231f20"/><path d="M140.578 88.738c-49.39 9.09-86.504 29.551-106.457 42.785-10.773 7.145-16.547 12.184-16.547 12.184v9.109s5.309-4.421 15.688-10.531c21.054-12.39 62.992-31.734 124.039-35.269 13.035-.758 26.937-.793 41.695.113V84.227a279.094 279.094 0 00-58.418 4.511" fill="#231f20"/></g></svg>